<svg width="16" height="15" viewBox="0 0 16 15" fill="none" xmlns="http://www.w3.org/2000/svg">
<path d="M13.5573 8.25C13.3923 8.25 13.2198 8.1975 13.0548 8.16C12.7209 8.08534 12.3926 7.98761 12.0723 7.8675C11.7243 7.74092 11.3419 7.7475 10.9985 7.88595C10.6551 8.02441 10.3751 8.28498 10.2123 8.6175L10.0473 8.9625C9.31888 8.5494 8.64598 8.04536 8.04476 7.4625C7.4619 6.86128 6.95786 6.18838 6.54476 5.46L6.88976 5.3025C7.22229 5.13969 7.48285 4.85965 7.62131 4.51627C7.75977 4.17289 7.76634 3.79043 7.63976 3.4425C7.52065 3.11927 7.42294 2.78856 7.34726 2.4525C7.30976 2.2875 7.27976 2.115 7.25726 1.95C7.16619 1.42171 6.88948 0.943306 6.47698 0.600929C6.06448 0.258552 5.54328 0.0747066 5.00726 0.0824999H2.74976C2.4327 0.0820846 2.11913 0.148686 1.8296 0.277938C1.54008 0.40719 1.28114 0.596173 1.06976 0.8325C0.854003 1.07524 0.693349 1.36181 0.59884 1.67253C0.504331 1.98324 0.478207 2.31073 0.522263 2.6325C0.929953 5.7541 2.35617 8.65399 4.57976 10.8825C6.80827 13.1061 9.70816 14.5323 12.8298 14.94C12.9271 14.9474 13.0249 14.9474 13.1223 14.94C13.6753 14.9408 14.2093 14.7379 14.6223 14.37C14.8586 14.1586 15.0476 13.8997 15.1768 13.6102C15.3061 13.3206 15.3727 13.0071 15.3723 12.69V10.44C15.3682 9.92178 15.1854 9.42084 14.8547 9.02182C14.524 8.62281 14.0657 8.35018 13.5573 8.25ZM13.9248 12.75C13.9245 12.8547 13.9024 12.9581 13.8597 13.0537C13.8171 13.1493 13.755 13.2349 13.6773 13.305C13.5951 13.3799 13.4972 13.4356 13.3909 13.468C13.2845 13.5004 13.1723 13.5088 13.0623 13.4925C10.2635 13.127 7.66245 11.8515 5.65976 9.8625C3.65537 7.8581 2.36879 5.24803 1.99976 2.4375C1.98347 2.3275 1.99184 2.21525 2.02427 2.10889C2.0567 2.00252 2.11237 1.9047 2.18726 1.8225C2.25823 1.74386 2.34505 1.68115 2.442 1.63849C2.53895 1.59583 2.64384 1.57419 2.74976 1.575H4.99976C5.17313 1.57076 5.34262 1.62674 5.47936 1.7334C5.61611 1.84006 5.71166 1.99081 5.74976 2.16C5.74976 2.3625 5.81726 2.5725 5.86226 2.775C5.94894 3.1679 6.06425 3.55393 6.20726 3.93L5.15726 4.425C4.97679 4.50785 4.83653 4.65889 4.76726 4.845C4.69225 5.0276 4.69225 5.2324 4.76726 5.415C5.84666 7.72707 7.7052 9.5856 10.0173 10.665C10.1999 10.74 10.4047 10.74 10.5873 10.665C10.7734 10.5957 10.9244 10.4555 11.0073 10.275L11.4798 9.225C11.8667 9.36609 12.2626 9.48135 12.6648 9.57C12.8598 9.615 13.0698 9.6525 13.2723 9.6825C13.4414 9.7206 13.5922 9.81616 13.6989 9.9529C13.8055 10.0896 13.8615 10.2591 13.8573 10.4325L13.9248 12.75ZM9.49976 0C9.32726 0 9.14726 0 8.97476 0C8.77585 0.0169076 8.5918 0.11214 8.4631 0.264748C8.33441 0.417356 8.27161 0.614838 8.28851 0.81375C8.30542 1.01266 8.40065 1.19671 8.55326 1.32541C8.70587 1.45411 8.90335 1.51691 9.10226 1.5H9.49976C10.6932 1.5 11.8378 1.97411 12.6817 2.81802C13.5257 3.66193 13.9998 4.80653 13.9998 6C13.9998 6.135 13.9998 6.2625 13.9998 6.3975C13.9831 6.59536 14.0456 6.79173 14.1736 6.94358C14.3015 7.09542 14.4845 7.19033 14.6823 7.2075H14.7423C14.93 7.20826 15.1112 7.13858 15.2501 7.01221C15.389 6.88584 15.4754 6.71199 15.4923 6.525C15.4923 6.3525 15.4923 6.1725 15.4923 6C15.4923 4.41 14.8612 2.88501 13.7376 1.76001C12.614 0.635006 11.0898 0.0019875 9.49976 0ZM10.9998 6C10.9998 6.19891 11.0788 6.38968 11.2194 6.53033C11.3601 6.67098 11.5508 6.75 11.7498 6.75C11.9487 6.75 12.1394 6.67098 12.2801 6.53033C12.4207 6.38968 12.4998 6.19891 12.4998 6C12.4998 5.20435 12.1837 4.44129 11.6211 3.87868C11.0585 3.31607 10.2954 3 9.49976 3C9.30085 3 9.11008 3.07902 8.96943 3.21967C8.82878 3.36032 8.74976 3.55109 8.74976 3.75C8.74976 3.94891 8.82878 4.13968 8.96943 4.28033C9.11008 4.42098 9.30085 4.5 9.49976 4.5C9.89759 4.5 10.2791 4.65804 10.5604 4.93934C10.8417 5.22064 10.9998 5.60218 10.9998 6Z" fill="#0073AF"/>
</svg>
