<svg width="182" height="38" viewBox="0 0 182 38" fill="none" xmlns="http://www.w3.org/2000/svg">
<g clip-path="url(#clip0_349_5125)">
<path d="M91.3596 28.3513V36.0994H89.2482V30.1586C89.2482 28.9751 89.0858 28.1531 88.7784 27.6867C88.4593 27.2145 87.9083 26.9813 87.1252 26.9813C86.6843 26.9813 86.2841 27.0804 85.9129 27.2786C85.5532 27.4827 85.1356 27.8383 84.6657 28.3455V36.0936H82.5659V25.4188H84.6657V26.8239C85.7388 25.7511 86.783 25.2148 87.8097 25.2148C89.1554 25.2148 90.1995 25.8619 90.942 27.1387C92.0673 25.8386 93.239 25.1915 94.463 25.1915C95.4955 25.1915 96.3424 25.5704 97.0036 26.3283C97.6707 27.0862 98.0071 28.2406 98.0071 29.7972V36.0936H95.9015V29.768C95.9015 28.8819 95.7217 28.1998 95.3621 27.7275C94.9966 27.2553 94.4804 27.0221 93.8017 27.0221C92.9316 27.0221 92.1195 27.4593 91.3654 28.3455" fill="white"/>
<path d="M106.441 36.1052V34.7468C105.995 35.2366 105.478 35.6155 104.904 35.8837C104.336 36.1577 103.767 36.2918 103.193 36.2918C102.526 36.2918 101.899 36.1227 101.331 35.7963C100.768 35.4581 100.339 34.9975 100.049 34.4204C99.7647 33.8432 99.6197 32.8812 99.6197 31.5462V25.4305H101.72V31.5229C101.72 32.648 101.876 33.4293 102.195 33.8782C102.514 34.3154 103.083 34.537 103.883 34.537C104.881 34.537 105.734 34.0472 106.435 33.062V25.4247H108.529V36.1052H106.435H106.441ZM101.859 20.2534C102.16 20.2534 102.416 20.3584 102.63 20.5741C102.851 20.7956 102.967 21.058 102.967 21.367C102.967 21.676 102.862 21.9383 102.653 22.154C102.445 22.3639 102.189 22.463 101.894 22.463C101.598 22.463 101.325 22.3581 101.11 22.1424C100.89 21.9208 100.786 21.6585 100.786 21.3553C100.786 21.0522 100.89 20.784 101.099 20.5741C101.319 20.3584 101.569 20.2534 101.865 20.2534M106.308 20.2534C106.604 20.2534 106.865 20.3584 107.079 20.5741C107.306 20.7956 107.416 21.058 107.416 21.367C107.416 21.676 107.311 21.9383 107.108 22.154C106.899 22.3639 106.644 22.463 106.343 22.463C106.041 22.463 105.774 22.3581 105.554 22.1424C105.339 21.9208 105.235 21.6585 105.235 21.3553C105.235 21.0522 105.339 20.784 105.548 20.5741C105.757 20.3584 106.018 20.2534 106.314 20.2534" fill="white"/>
<path d="M110.171 19.892H112.271V26.8297C113.147 25.757 114.237 25.2206 115.537 25.2206C116.244 25.2206 116.882 25.4014 117.439 25.757C118.002 26.1126 118.414 26.6023 118.686 27.232C118.959 27.8616 119.104 28.7886 119.104 30.0304V36.1111H117.004V29.5057C117.004 28.7245 116.807 28.0948 116.424 27.6226C116.041 27.1445 115.542 26.9055 114.922 26.9055C114.458 26.9055 114.023 27.0279 113.617 27.267C113.211 27.506 112.758 27.9024 112.265 28.4621V36.1111H110.165V19.8978L110.171 19.892Z" fill="white"/>
<path d="M129.818 30.9515H122.347C122.399 31.9718 122.741 32.788 123.362 33.3885C124 33.9948 124.806 34.2921 125.804 34.2921C127.184 34.2921 128.466 33.8607 129.638 32.992V35.0558C128.988 35.4931 128.344 35.8021 127.712 35.9828C127.08 36.1694 126.337 36.2626 125.479 36.2626C124.313 36.2626 123.367 36.0178 122.642 35.5339C121.917 35.0442 121.337 34.3912 120.896 33.575C120.467 32.7472 120.252 31.791 120.252 30.7066C120.252 29.0801 120.711 27.7625 121.627 26.7539C122.538 25.7337 123.733 25.2206 125.195 25.2206C126.656 25.2206 127.729 25.7162 128.565 26.7073C129.4 27.6984 129.823 29.0276 129.823 30.6892V30.9573L129.818 30.9515ZM122.393 29.6864H127.735C127.683 28.841 127.434 28.1939 126.987 27.7333C126.54 27.2786 125.943 27.0512 125.189 27.0512C124.435 27.0512 123.814 27.2786 123.327 27.7333C122.857 28.1939 122.544 28.841 122.393 29.6864Z" fill="white"/>
<path d="M132.909 25.4247V26.7831C133.849 25.7395 134.916 25.2148 136.106 25.2148C136.773 25.2148 137.382 25.3897 137.95 25.7337C138.524 26.0718 138.954 26.544 139.244 27.1503C139.54 27.745 139.696 28.6953 139.696 29.9954V36.0994H137.596V30.0187C137.596 28.9285 137.434 28.1473 137.103 27.6867C136.773 27.2145 136.216 26.9813 135.438 26.9813C134.447 26.9813 133.605 27.4768 132.909 28.4738V36.0994H130.763V25.4247H132.909Z" fill="white"/>
<path d="M148.443 19.892H150.555V36.1053H146.065C144.499 36.1053 143.24 35.6039 142.301 34.6069C141.367 33.6042 140.903 32.2691 140.903 30.5901C140.903 29.0218 141.39 27.7275 142.37 26.7131C143.356 25.6987 144.609 25.1915 146.135 25.1915C146.842 25.1915 147.614 25.3431 148.443 25.6462V19.892ZM148.443 34.2921V27.5235C147.788 27.1912 147.127 27.0279 146.46 27.0279C145.41 27.0279 144.58 27.3719 143.954 28.0598C143.339 28.742 143.031 29.6748 143.031 30.8408C143.031 31.9426 143.304 32.788 143.838 33.3826C144.163 33.7383 144.505 33.9773 144.864 34.0997C145.224 34.2222 145.874 34.2863 146.813 34.2863H148.443V34.2921Z" fill="white"/>
<path d="M153.217 20.9356C153.565 20.9356 153.861 21.058 154.105 21.297C154.354 21.5361 154.476 21.8334 154.476 22.1774C154.476 22.5213 154.354 22.8128 154.105 23.0577C153.855 23.3084 153.56 23.4308 153.217 23.4308C152.893 23.4308 152.608 23.3084 152.359 23.0577C152.109 22.8012 151.993 22.5097 151.993 22.1774C151.993 21.8451 152.115 21.571 152.359 21.3204C152.608 21.0638 152.893 20.9356 153.217 20.9356ZM154.279 25.4247V36.0994H152.179V25.4247H154.279Z" fill="white"/>
<path d="M155.514 35.3415V33.0678C156.106 33.4876 156.709 33.8257 157.33 34.0881C157.956 34.3446 158.479 34.4728 158.902 34.4728C159.325 34.4728 159.714 34.3679 160.033 34.1464C160.346 33.9306 160.503 33.6683 160.503 33.3651C160.503 33.062 160.399 32.8055 160.196 32.6014C159.992 32.3915 159.552 32.0942 158.879 31.7094C157.521 30.9515 156.634 30.3044 156.21 29.7738C155.799 29.2317 155.584 28.6428 155.584 28.0074C155.584 27.1912 155.903 26.5207 156.535 26.0018C157.173 25.483 157.991 25.2264 158.995 25.2264C159.998 25.2264 161.1 25.5179 162.197 26.1068V28.1997C160.95 27.4418 159.929 27.0629 159.134 27.0629C158.728 27.0629 158.392 27.1503 158.142 27.3311C157.893 27.5001 157.771 27.7275 157.771 28.0132C157.771 28.2639 157.881 28.4971 158.107 28.7186C158.339 28.9402 158.734 29.2142 159.308 29.529L160.062 29.9604C161.831 30.9632 162.719 32.0767 162.719 33.301C162.719 34.1697 162.371 34.8926 161.692 35.4581C161.013 36.0178 160.138 36.2976 159.07 36.2976C158.438 36.2976 157.875 36.2335 157.382 36.0994C156.889 35.9595 156.268 35.7088 155.52 35.3415" fill="white"/>
<path d="M166.008 19.892H163.902V36.1053H166.008V19.892Z" fill="white"/>
<path d="M168.844 20.9356C169.192 20.9356 169.488 21.058 169.732 21.297C169.975 21.5361 170.097 21.8334 170.097 22.1774C170.097 22.5213 169.975 22.8128 169.732 23.0577C169.482 23.3084 169.186 23.4308 168.844 23.4308C168.525 23.4308 168.235 23.3084 167.992 23.0577C167.742 22.8012 167.62 22.5097 167.62 22.1774C167.62 21.8451 167.742 21.571 167.992 21.3204C168.241 21.0638 168.519 20.9356 168.844 20.9356ZM169.906 25.4247V36.0994H167.8V25.4247H169.906Z" fill="white"/>
<path d="M178.572 25.4247H181.078L176.542 30.66L182.006 36.1053H179.187L173.862 30.66L178.572 25.4247ZM173.769 19.892V36.1053H171.663V19.892H173.769Z" fill="white"/>
<path d="M49.1776 14.954C46.9443 16.3065 44.0382 15.5836 42.6925 13.3332C41.3468 11.0887 42.066 8.16784 44.2993 6.81528C46.5325 5.46272 49.4386 6.18564 50.7844 8.43019C52.1301 10.6747 51.405 13.6014 49.1718 14.9481" fill="white"/>
<path d="M39.711 8.18532C38.2028 9.92849 35.5809 10.1151 33.8408 8.59925C32.1064 7.08928 31.9208 4.44828 33.4231 2.70511C34.9313 0.961939 37.559 0.781208 39.2933 2.28535C41.0277 3.80115 41.2133 6.44798 39.711 8.18532Z" fill="white"/>
<path d="M29.9544 5.11292C29.1655 6.98436 27.0193 7.86469 25.1573 7.07181C23.2953 6.27893 22.431 4.12182 23.2198 2.25039C24.0087 0.378957 26.155 -0.489715 28.017 0.297337C29.879 1.09022 30.749 3.24732 29.9602 5.11875" fill="white"/>
<path d="M20.9518 5.20618C20.801 6.99017 19.2406 8.30775 17.4656 8.14451C15.6965 7.99293 14.3855 6.42465 14.5363 4.6465C14.6871 2.86835 16.2533 1.54494 18.0167 1.69652C19.7917 1.85976 21.1026 3.4222 20.946 5.20618" fill="white"/>
<path d="M13.4458 7.74225C13.7997 9.27554 12.8484 10.803 11.3228 11.1586C9.79723 11.5201 8.27747 10.564 7.92364 9.03068C7.5698 7.50322 8.5153 5.96409 10.0467 5.61429C11.5722 5.25866 13.092 6.21478 13.4458 7.74808" fill="white"/>
<path d="M7.85403 11.9107C8.5675 13.1 8.17886 14.6392 7.00134 15.3504C5.81801 16.0675 4.28665 15.6827 3.57898 14.4992C2.8655 13.3099 3.24834 11.7708 4.42587 11.0537C5.60919 10.3424 7.14055 10.7214 7.85403 11.9049" fill="white"/>
<path d="M4.30406 16.942C5.21475 17.7349 5.31336 19.1283 4.52448 20.0494C3.7298 20.9706 2.34345 21.0638 1.42695 20.271C0.510457 19.4722 0.417648 18.0789 1.20653 17.1577C1.99541 16.2424 3.38756 16.1433 4.30406 16.942Z" fill="white"/>
<path d="M2.68568 22.1132C3.67178 22.533 4.13003 23.6698 3.71239 24.6551C3.29474 25.6404 2.16362 26.1068 1.17752 25.687C0.197217 25.2731 -0.266831 24.1246 0.156613 23.1393C0.574257 22.154 1.70538 21.6935 2.68568 22.1132Z" fill="white"/>
<path d="M2.73789 26.8822C3.67178 26.9696 4.36206 27.7916 4.28085 28.7361C4.19964 29.6747 3.37595 30.3685 2.44205 30.2869C1.50816 30.2053 0.817883 29.3774 0.899091 28.4388C0.9803 27.4943 1.79819 26.8005 2.73789 26.8822Z" fill="white"/>
<path d="M4.06623 30.8699C4.87251 30.6833 5.673 31.1847 5.85862 31.9951C6.04424 32.8055 5.54538 33.6042 4.7391 33.7966C3.93861 33.9831 3.13233 33.4818 2.94671 32.6714C2.76109 31.8668 3.25994 31.0506 4.06623 30.8641" fill="white"/>
<path d="M6.25886 33.8316C6.88533 33.4584 7.69161 33.6567 8.06285 34.2863C8.43989 34.9101 8.23687 35.7263 7.61621 36.0994C6.99554 36.4784 6.18345 36.2743 5.81222 35.6505C5.43518 35.0267 5.6382 34.2105 6.25886 33.8316Z" fill="white"/>
<path d="M8.89814 35.7205C9.31578 35.2366 10.0467 35.1783 10.5339 35.6097C11.0154 36.0294 11.0676 36.764 10.6441 37.2479C10.2265 37.7318 9.4956 37.7843 9.01415 37.3645C8.5327 36.9389 8.48049 36.2043 8.89814 35.7205Z" fill="white"/>
<path d="M11.6128 36.5775C11.8332 36.0586 12.4249 35.8138 12.947 36.0295C13.4632 36.251 13.7068 36.8457 13.4864 37.3762C13.266 37.8951 12.6685 38.1399 12.1523 37.9184C11.636 37.6968 11.3924 37.0964 11.6128 36.5775Z" fill="white"/>
<path d="M14.1187 36.5483C14.1593 36.0528 14.6001 35.6855 15.0874 35.7321C15.5804 35.7788 15.9459 36.216 15.9053 36.7116C15.8647 37.2013 15.4238 37.5686 14.9366 37.5278C14.4435 37.4869 14.0781 37.0497 14.1187 36.5483Z" fill="white"/>
<path d="M16.7928 17.4842H21.5145V20.2709C23.1038 18.2129 24.8092 17.1869 26.648 17.1869C28.9799 17.1869 30.5866 18.4811 31.4799 21.0696C32.321 19.6646 33.1505 18.6677 33.9684 18.073C34.8095 17.4842 35.8362 17.1869 37.0543 17.1869C38.8177 17.1869 40.1924 17.834 41.1843 19.1341C42.1994 20.4283 42.7099 22.189 42.7099 24.4102V35.7671H37.9882V25.5879C37.9882 22.4922 37.1703 20.9414 35.5345 20.9414C34.444 20.9414 33.3013 21.6876 32.1122 23.1859V35.7671H27.3905V25.4188C27.3905 23.9555 27.2803 22.9702 27.0541 22.463C26.6074 21.4486 25.9055 20.9414 24.9368 20.9414C23.9681 20.9414 22.8544 21.6876 21.5203 23.1859V35.7671H16.7986V17.4842H16.7928Z" fill="white"/>
<path d="M50.0709 17.4842H45.3492V35.7671H50.0709V17.4842Z" fill="white"/>
<path d="M52.7276 17.4842H57.4493V20.2709C59.0386 18.2129 60.744 17.1869 62.577 17.1869C64.9088 17.1869 66.5214 18.4811 67.4147 21.0696C68.2558 19.6646 69.0853 18.6677 69.909 18.073C70.7501 17.4842 71.7826 17.1869 72.9949 17.1869C74.7525 17.1869 76.1272 17.834 77.1191 19.1341C78.1342 20.4283 78.6447 22.189 78.6447 24.4102V35.7671H73.923V25.5879C73.923 22.4922 73.1051 20.9414 71.4693 20.9414C70.3788 20.9414 69.2361 21.6876 68.0528 23.1859V35.7671H63.3311V25.4188C63.3311 23.9555 63.2209 22.9702 62.9946 22.463C62.548 21.4486 61.8403 20.9414 60.8774 20.9414C59.9145 20.9414 58.795 21.6876 57.4551 23.1859V35.7671H52.7334V17.4842H52.7276Z" fill="white"/>
</g>
<defs>
<clipPath id="clip0_349_5125">
<rect width="182" height="38" fill="white"/>
</clipPath>
</defs>
</svg>
