<svg width="16" height="13" viewBox="0 0 16 13" fill="none" xmlns="http://www.w3.org/2000/svg">
<path d="M13.25 0.5H2.75C2.15326 0.5 1.58097 0.737053 1.15901 1.15901C0.737053 1.58097 0.5 2.15326 0.5 2.75V10.25C0.5 10.8467 0.737053 11.419 1.15901 11.841C1.58097 12.2629 2.15326 12.5 2.75 12.5H13.25C13.8467 12.5 14.419 12.2629 14.841 11.841C15.2629 11.419 15.5 10.8467 15.5 10.25V2.75C15.5 2.15326 15.2629 1.58097 14.841 1.15901C14.419 0.737053 13.8467 0.5 13.25 0.5ZM12.9425 2L8.5325 6.41C8.46278 6.4803 8.37983 6.53609 8.28843 6.57417C8.19704 6.61225 8.09901 6.63185 8 6.63185C7.90099 6.63185 7.80296 6.61225 7.71157 6.57417C7.62017 6.53609 7.53722 6.4803 7.4675 6.41L3.0575 2H12.9425ZM14 10.25C14 10.4489 13.921 10.6397 13.7803 10.7803C13.6397 10.921 13.4489 11 13.25 11H2.75C2.55109 11 2.36032 10.921 2.21967 10.7803C2.07902 10.6397 2 10.4489 2 10.25V3.0575L6.41 7.4675C6.83188 7.88885 7.40375 8.12552 8 8.12552C8.59625 8.12552 9.16812 7.88885 9.59 7.4675L14 3.0575V10.25Z" fill="#0073AF"/>
</svg>
