<svg width="14" height="17" viewBox="0 0 14 17" fill="none" xmlns="http://www.w3.org/2000/svg">
<path d="M11.9571 2.48217C10.6435 1.21301 8.86194 0.5 7.00429 0.5C5.14663 0.5 3.36507 1.21301 2.05151 2.48217C0.737949 3.75133 1.38406e-08 5.47269 0 7.26756C-1.38406e-08 9.06243 0.737949 10.7838 2.05151 12.0529L6.4017 16.2641C6.47844 16.3388 6.56973 16.3982 6.67032 16.4387C6.77091 16.4792 6.87881 16.5 6.98778 16.5C7.09675 16.5 7.20464 16.4792 7.30523 16.4387C7.40582 16.3982 7.49712 16.3388 7.57386 16.2641L11.9571 12.0131C13.2651 10.7492 14 9.035 14 7.24762C14 5.46023 13.2651 3.74605 11.9571 2.48217ZM10.7767 10.8725L7.00429 14.5334L3.23192 10.8725C2.48665 10.1518 1.97926 9.23375 1.7739 8.23444C1.56854 7.23512 1.67443 6.19942 2.07817 5.25824C2.48192 4.31706 3.1654 3.51266 4.04222 2.94673C4.91904 2.3808 5.94983 2.07875 7.00429 2.07875C8.05875 2.07875 9.08953 2.3808 9.96635 2.94673C10.8432 3.51266 11.5267 4.31706 11.9304 5.25824C12.3341 6.19942 12.44 7.23512 12.2347 8.23444C12.0293 9.23375 11.5219 10.1518 10.7767 10.8725ZM4.5279 4.81904C3.86151 5.46488 3.48731 6.33964 3.48731 7.25161C3.48731 8.16357 3.86151 9.03833 4.5279 9.68418C5.02298 10.1633 5.65349 10.4906 6.34033 10.6248C7.02716 10.7591 7.73974 10.6944 8.38865 10.4388C9.03756 10.1832 9.59391 9.74821 9.98791 9.18829C10.3819 8.62838 10.596 7.96851 10.6033 7.29148C10.607 6.83943 10.5169 6.39124 10.3383 5.97342C10.1596 5.5556 9.89607 5.17663 9.56322 4.85891C9.23607 4.53556 8.84596 4.27792 8.41535 4.1008C7.98474 3.92368 7.52213 3.83059 7.05415 3.82689C6.58616 3.82318 6.12203 3.90893 5.68847 4.0792C5.25492 4.24948 4.86049 4.50091 4.5279 4.81904ZM8.39932 8.55164C8.0865 8.85849 7.67309 9.05083 7.22974 9.09578C6.7864 9.14072 6.34067 9.03547 5.96875 8.79803C5.59683 8.56058 5.32183 8.20569 5.19075 7.79402C5.05967 7.38235 5.08067 6.93947 5.25014 6.5411C5.41962 6.14273 5.72705 5.81361 6.11987 5.61001C6.5127 5.40641 6.96652 5.34097 7.40376 5.42488C7.84099 5.50879 8.23448 5.73684 8.51696 6.07004C8.79943 6.40324 8.95334 6.8209 8.95238 7.25161C8.94037 7.74392 8.72661 8.2115 8.35805 8.55164H8.39932Z" fill="#0073AF"/>
</svg>
